<svg xmlns="http://www.w3.org/2000/svg" viewBox="0 0 500 500"><defs><style>.cls-1{fill:#741d43;}.cls-2{fill:#e20846;}.cls-3{fill:#fff;}</style></defs><g id="COVID_-_Red" data-name="COVID - Red"><polygon id="Prongs" class="cls-1" points="416.76 315.2 275.63 258.62 408.51 243.25 407.24 232.27 272.75 247.84 403.94 159.12 393.12 143.11 262.8 231.24 319.82 112.45 309.87 107.67 249.73 232.93 199.24 81.45 175.67 89.31 224.27 235.12 91.3 165.85 82.37 182.99 221.66 255.55 76.4 284.97 78.59 295.79 219.72 267.21 98.3 386.81 115.74 404.51 234.58 287.45 211 426.12 221.89 427.97 246.65 282.36 346.5 421.86 366.71 407.39 274.92 279.16 409.57 333.14 416.76 315.2"/><g id="Main"><circle class="cls-2" cx="245.81" cy="259.32" r="130.46"/><circle class="cls-2" cx="107.02" cy="395.66" r="37.6" transform="translate(-165.65 89.63) rotate(-26.57)"/><circle class="cls-2" cx="356.61" cy="414.62" r="37.6"/><circle class="cls-2" cx="187.45" cy="85.38" r="37.6" transform="translate(-14.6 45.35) rotate(-13.28)"/><circle class="cls-2" cx="398.53" cy="151.11" r="28.14" transform="translate(-27.49 164.01) rotate(-22.5)"/><circle class="cls-2" cx="413.16" cy="324.17" r="28.14"/><circle class="cls-2" cx="86.84" cy="174.42" r="28.14"/><circle class="cls-2" cx="314.84" cy="110.06" r="18.8"/><circle class="cls-2" cx="407.88" cy="237.76" r="18.8" transform="translate(-59.94 174.19) rotate(-22.5)"/><circle class="cls-2" cx="216.44" cy="427.05" r="18.8" transform="translate(-146.95 115.34) rotate(-22.5)"/><circle class="cls-2" cx="77.49" cy="290.38" r="18.8" transform="translate(-220.44 250.85) rotate(-67.5)"/></g><g id="Middle"><circle class="cls-3" cx="211.53" cy="217.5" r="30.48" transform="translate(-25.76 406.57) rotate(-84.34)"/><circle class="cls-3" cx="250.26" cy="312.04" r="21.15"/><circle class="cls-3" cx="295.15" cy="237.66" r="15.43" transform="translate(-39.62 60.1) rotate(-10.9)"/></g></g></svg>